<?xml version="1.0" standalone="no"?>
<!DOCTYPE svg PUBLIC "-//W3C//DTD SVG 20010904//EN"
 "http://www.w3.org/TR/2001/REC-SVG-20010904/DTD/svg10.dtd">
<svg version="1.0" xmlns="http://www.w3.org/2000/svg"
 width="694.000000pt" height="300.000000pt" viewBox="0 0 694.000000 300.000000"
 preserveAspectRatio="xMidYMid meet">

<g transform="translate(0.000000,300.000000) scale(0.100000,-0.100000)"
fill="#000000" stroke="none">
<path d="M0 1500 l0 -1460 320 0 320 0 0 1145 0 1145 935 0 935 0 0 315 0 315
-1255 0 -1255 0 0 -1460z"/>
<path d="M3120 2640 l0 -320 1463 0 1463 0 52 -26 c125 -62 175 -210 113 -332
-26 -51 -99 -115 -149 -130 -27 -8 -151 -12 -396 -12 l-356 0 0 -320 0 -320
178 0 177 0 287 -568 286 -567 351 -3 c330 -2 351 -1 351 15 0 10 -133 281
-295 601 -162 321 -295 587 -295 591 0 4 21 17 48 30 219 106 405 351 459 605
22 106 20 281 -6 390 -77 323 -308 559 -646 660 -69 20 -84 20 -1577 23
l-1508 3 0 -320z"/>
<path d="M990 1500 l0 -320 1850 0 1850 0 0 320 0 320 -1850 0 -1850 0 0 -320z"/>
<path d="M1570 355 l0 -315 1880 0 1880 0 0 315 0 315 -1880 0 -1880 0 0 -315z"/>
</g>
</svg>
